<svg xmlns="http://www.w3.org/2000/svg" xmlns:xlink="http://www.w3.org/1999/xlink" version="1.1" x="0px" y="0px" viewBox="0 0 66 82.5" enable-background="new 0 0 66 66" xml:space="preserve"><g><path d="M32.3228073,2.000037c3.4570999,0,6.269001,2.8125002,6.269001,6.2697001   c0,3.4565001-2.8119011,6.2690001-6.269001,6.2690001s-6.2691002-2.8125-6.2691002-6.2690001   C26.0537071,4.8125372,28.8657074,2.000037,32.3228073,2.000037z"/><path d="M15.5752077,42.2711372c0-0.6049004,0.4919138-1.0974007,1.0973997-1.0974007h4.2844009   c0.6054993,0,1.0972996,0.4925003,1.0972996,1.0974007v1.8786011h-6.4791002V42.2711372z M9.8259087,46.3444366   c4.3116999,0,13.6506996,0,17.9777985,0v12.4369011c-4.415699,0-13.5592985,0-17.9777985,0V46.3444366z M48.0383072,29.9933376   c0,2.8560009-2.328598,5.1798-5.1898994,5.1798h-6.7159996c-1.4938011,0-2.7101021-1.2158012-2.7101021-2.710701   c0-0.719099,0.2829018-1.3979988,0.8037033-1.9181995c0.5025978-0.5107002,1.1798973-0.7919998,1.9063988-0.7919998h5.6519012   c0.6064987,0,1.0972977-0.4913006,1.0972977-1.0972996v-2.2494011c0-0.605999-0.490799-1.0973988-1.0972977-1.0973988   c-0.6066017,0-1.0974007,0.4913998-1.0974007,1.0973988v1.1520004h-1.8067856v-4.5716   c0-1.2103996-0.9848137-2.1947002-2.1947174-2.1947002h-5.2231979c-1.2098007,0-2.1947002,0.9843006-2.1947002,2.1947002v9.0537014   c0,1.2104988,0.9848995,2.1947975,2.1947002,2.1947975h0.1091995c0.7131004,1.8291016,2.4826012,3.1334,4.5610008,3.1334h4.5501976   v22.7910995c0,1.9723015-1.4327965,3.6520996-3.2662964,3.8241005c-2.2140999,0.208004-3.990303-1.5303993-4.0061874-3.5990982   c0.0000839-0.0088005,0.0014839-0.0175018,0.0014839-0.0261993c0-0.0076027-0.0042-0.0138016-0.0042992-0.0213013V41.4154358   c0-0.605999-0.490799-1.0973969-1.0974007-1.0973969c-0.6064987,0-1.0972977,0.4913979-1.0972977,1.0973969V60.356636   c0,0.0093002,0.0014,0.0184021,0.0014,0.0277023c-0.0153999,2.0676994-1.7758865,3.8063965-3.986887,3.5981979   c-1.5891132-0.1344986-2.8756142-1.3961983-3.2016125-3.0065002h4.8754997c0.6065998,0,1.0973988-0.4913979,1.0973988-1.0974007   V45.247036c0-0.605999-0.490799-1.0972977-1.0973988-1.0972977h-4.651886v-1.8786011   c0-0.6711998-0.2039146-1.2947006-0.5501156-1.8157997c0.1556015-0.4720993,0.2414017-0.9641991,0.2414017-1.474102V26.4055367   c0-0.605999-0.4908009-1.0973988-1.0972862-1.0973988c-0.6066151,0-1.097414,0.4913998-1.097414,1.0973988v12.5756989   c0,0.0343018-0.0104008,0.0663033-0.0118008,0.1004028c-0.2502995-0.0611-0.5079994-0.1026001-0.7768993-0.1026001h-4.2844009   c-0.0545998,0-0.1054859,0.0135994-0.1594849,0.0161972c0-0.0047989-0.0013142-0.0093002-0.0013142-0.0139999V26.723238   c0-4.3626003,3.5493126-7.9119015,7.9118996-7.9119015h17.2502003c3.5095978,0,6.364399,2.8554001,6.364399,6.3649998V29.9933376z    M32.6678085,28.9983368c-0.5792999,0.5790005-0.9738007,1.2828007-1.2056007,2.0414009v-8.0538006h5.2231979v4.5716h-0.5529976   C34.8133087,27.5575371,33.5798073,28.0714378,32.6678085,28.9983368z"/><path d="M51.8737068,11.4454374c-0.5453987-0.2679005-1.2024002-0.0444002-1.4702988,0.4977999   c-0.2689018,0.5432997-0.0460014,1.2012997,0.4972992,1.4698c2.7326012,1.3501997,3.8578987,4.6711988,2.5075989,7.4033995   c-0.2689972,0.5433006-0.0461006,1.2012997,0.4972,1.4696999c0.1565018,0.0771999,0.3226166,0.1135998,0.4855003,0.1135998   c0.405117,0,0.794117-0.2238998,0.9848022-0.6112995C57.2619057,17.9717369,55.6909065,13.3315372,51.8737068,11.4454374z"/><path d="M49.9298058,15.3810368c-0.5443993-0.2694998-1.2012978-0.0454998-1.4702988,0.4973001   c-0.269001,0.5432997-0.0461006,1.2013006,0.4972,1.4702997c0.5625992,0.278101,0.7941017,0.9617996,0.5166016,1.5237999   c-0.269001,0.5433998-0.0461006,1.2012997,0.4982986,1.4698009c0.1553993,0.0770988,0.3215141,0.1135998,0.4842987,0.1135998   c0.4051018,0,0.7941017-0.2240009,0.9849014-0.6114006C52.2542076,18.1978378,51.5758057,16.1955376,49.9298058,15.3810368z"/></g><text x="0" y="81" fill="#000000" font-size="5px" font-weight="bold" font-family="'Helvetica Neue', Helvetica, Arial-Unicode, Arial, Sans-serif">Created by Vectors Point</text><text x="0" y="86" fill="#000000" font-size="5px" font-weight="bold" font-family="'Helvetica Neue', Helvetica, Arial-Unicode, Arial, Sans-serif">from the Noun Project</text></svg>